<svg xmlns="http://www.w3.org/2000/svg" style="display: none;">
  <!-- Notification Bell -->
  <symbol id="bell-icon" viewBox="0 0 24 24">
    <path fill="currentColor" d="M12,2A2,2 0 0,1 14,4C14,4.74 13.6,5.39 13,5.73V7A7,7 0 0,1 20,14V16A1,1 0 0,0 21,17H22V19H2V17H3A1,1 0 0,0 4,16V14A7,7 0 0,1 11,7V5.73C10.4,5.39 10,4.74 10,4A2,2 0 0,1 12,2M7.5,21A1.5,1.5 0 0,0 9,22.5H15A1.5,1.5 0 0,0 16.5,21"/>
  </symbol>
  
  <!-- Login/Key -->
  <symbol id="login-icon" viewBox="0 0 24 24">
    <path fill="currentColor" d="M10,17V14H3V10H10V7L15,12L10,17M10,2H19A2,2 0 0,1 21,4V20A2,2 0 0,1 19,22H10A2,2 0 0,1 8,20V18H10V20H19V4H10V6H8V4A2,2 0 0,1 10,2Z"/>
  </symbol>
  
  <!-- Credit Card -->
  <symbol id="card-icon" viewBox="0 0 24 24">
    <path fill="currentColor" d="M20,4H4C2.89,4 2,4.89 2,6V18A2,2 0 0,0 4,20H20A2,2 0 0,0 22,18V6C22,4.89 21.1,4 20,4M20,11H4V8H20V11Z"/>
  </symbol>
  
  <!-- Identity/Person -->
  <symbol id="identity-icon" viewBox="0 0 24 24">
    <path fill="currentColor" d="M12,4A4,4 0 0,1 16,8A4,4 0 0,1 12,12A4,4 0 0,1 8,8A4,4 0 0,1 12,4M12,14C16.42,14 20,15.79 20,18V20H4V18C4,15.79 7.58,14 12,14Z"/>
  </symbol>
  
  <!-- Files/Document -->
  <symbol id="files-icon" viewBox="0 0 24 24">
    <path fill="currentColor" d="M14,2H6A2,2 0 0,0 4,4V20A2,2 0 0,0 6,22H18A2,2 0 0,0 20,20V8L14,2M18,20H6V4H13V9H18V20Z"/>
  </symbol>
  
  <!-- Vault/Safe -->
  <symbol id="vault-icon" viewBox="0 0 24 24">
    <path fill="currentColor" d="M18,8A2,2 0 0,1 20,10V20A2,2 0 0,1 18,22H6A2,2 0 0,1 4,20V10C4,8.89 4.9,8 6,8H7V6A5,5 0 0,1 12,1A5,5 0 0,1 17,6V8H18M12,3A3,3 0 0,0 9,6V8H15V6A3,3 0 0,0 12,3Z"/>
  </symbol>
  
  <!-- Stats/Chart -->
  <symbol id="stats-icon" viewBox="0 0 24 24">
    <path fill="currentColor" d="M22,21H2V3H4V19H6V17H10V19H12V16H16V19H18V17H22V21Z"/>
  </symbol>
</svg>