<svg xmlns="http://www.w3.org/2000/svg" style="display: none;">
  <!-- Security Shield Icon -->
  <symbol id="shield-icon" viewBox="0 0 24 24">
    <path fill="currentColor" d="M12,1L3,5V11C3,16.55 6.84,21.74 12,23C17.16,21.74 21,16.55 21,11V5L12,1M12,7C13.4,7 14.8,8.6 14.8,10V11.5C15.4,11.5 16,12.4 16,13V16C16,17.4 15.4,18 14.8,18H9.2C8.6,18 8,17.4 8,16V13C8,12.4 8.6,11.5 9.2,11.5V10C9.2,8.6 10.6,7 12,7M12,8.2C11.2,8.2 10.5,8.7 10.5,10V11.5H13.5V10C13.5,8.7 12.8,8.2 12,8.2Z"/>
  </symbol>
  
  <!-- Lock Icon -->
  <symbol id="lock-icon" viewBox="0 0 24 24">
    <path fill="currentColor" d="M12,17A2,2 0 0,0 14,15C14,13.89 13.1,13 12,13A2,2 0 0,0 10,15A2,2 0 0,0 12,17M18,8A2,2 0 0,1 20,10V20A2,2 0 0,1 18,22H6A2,2 0 0,1 4,20V10C4,8.89 4.9,8 6,8H7V6A5,5 0 0,1 12,1A5,5 0 0,1 17,6V8H18M12,3A3,3 0 0,0 9,6V8H15V6A3,3 0 0,0 12,3Z"/>
  </symbol>
  
  <!-- Key Icon -->
  <symbol id="key-icon" viewBox="0 0 24 24">
    <path fill="currentColor" d="M7,14A3,3 0 0,1 10,17A3,3 0 0,1 7,20A3,3 0 0,1 4,17A3,3 0 0,1 7,14M7,16A1,1 0 0,0 6,17A1,1 0 0,0 7,18A1,1 0 0,0 8,17A1,1 0 0,0 7,16M20.42,4.58L19,3.15L9.88,12.27L11.3,13.68L20.42,4.58Z"/>
  </symbol>
  
  <!-- Email Icon -->
  <symbol id="email-icon" viewBox="0 0 24 24">
    <path fill="currentColor" d="M20,8L12,13L4,8V6L12,11L20,6M20,4H4C2.89,4 2,4.89 2,6V18A2,2 0 0,0 4,20H20A2,2 0 0,0 22,18V6C22,4.89 21.1,4 20,4Z"/>
  </symbol>
  
  <!-- Eye Icon -->
  <symbol id="eye-icon" viewBox="0 0 24 24">
    <path fill="currentColor" d="M12,9A3,3 0 0,0 9,12A3,3 0 0,0 12,15A3,3 0 0,0 15,12A3,3 0 0,0 12,9M12,17A5,5 0 0,1 7,12A5,5 0 0,1 12,7A5,5 0 0,1 17,12A5,5 0 0,1 12,17M12,4.5C7,4.5 2.73,7.61 1,12C2.73,16.39 7,19.5 12,19.5C17,19.5 21.27,16.39 23,12C21.27,7.61 17,4.5 12,4.5Z"/>
  </symbol>
  
  <!-- Eye Off Icon -->
  <symbol id="eye-off-icon" viewBox="0 0 24 24">
    <path fill="currentColor" d="M11.83,9L15,12.16C15,12.11 15,12.05 15,12A3,3 0 0,0 12,9C11.94,9 11.89,9 11.83,9M7.53,9.8L9.08,11.35C9.03,11.56 9,11.77 9,12A3,3 0 0,0 12,15C12.22,15 12.44,14.97 12.65,14.92L14.2,16.47C13.53,16.8 12.79,17 12,17A5,5 0 0,1 7,12C7,11.21 7.2,10.47 7.53,9.8M2,4.27L4.28,6.55L4.73,7C3.08,8.3 1.78,10 1,12C2.73,16.39 7,19.5 12,19.5C13.55,19.5 15.03,19.2 16.38,18.66L16.81,19.09L19.73,22L21,20.73L3.27,3M12,7A5,5 0 0,1 17,12C17,12.64 16.87,13.26 16.64,13.82L19.57,16.75C21.07,15.5 22.27,13.86 23,12C21.27,7.61 17,4.5 12,4.5C10.6,4.5 9.26,4.75 8,5.2L10.17,7.35C10.76,7.13 11.37,7 12,7Z"/>
  </symbol>
</svg>